<svg width="1200" height="800" viewBox="0 0 1200 800" fill="none" xmlns="http://www.w3.org/2000/svg">
  <rect width="1200" height="800" rx="48" fill="#F2F5F7"/>
  <circle cx="943" cy="170" r="124" fill="#D7E3EA"/>
  <circle cx="222" cy="638" r="142" fill="#E8EEF1"/>
  <path d="M342 413C342 271.615 456.615 157 598 157C739.385 157 854 271.615 854 413V458H786V413C786 309.169 701.831 225 598 225C494.169 225 410 309.169 410 413V458H342V413Z" fill="#111827"/>
  <rect x="300" y="420" width="138" height="202" rx="52" fill="#111827"/>
  <rect x="758" y="420" width="138" height="202" rx="52" fill="#111827"/>
  <rect x="494" y="278" width="214" height="58" rx="29" fill="#FFFFFF"/>
  <rect x="468" y="502" width="262" height="122" rx="28" fill="#FFFFFF"/>
  <rect x="505" y="539" width="142" height="18" rx="9" fill="#111827"/>
  <rect x="505" y="575" width="182" height="14" rx="7" fill="#94A3B8"/>
  <rect x="0.5" y="0.5" width="1199" height="799" rx="47.5" stroke="#111827" stroke-opacity="0.06"/>
</svg>
